# xmcd
#
# Track frame offsets:
#	150
#	19619
#	42943
#	63358
#	82815
#	106748
#	126275
#	146729
#	171779
#	196351
#
# Disc length: 2835 seconds
#
# Revision: 0
# Processed by: cddbd v1.4PL0 Copyright (c) Steve Scherf et al.
# Submitted via: dBpowerAMP V4.0
#
DISCID=7e0b110a
DTITLE=Stan Mosley - The Soul Singer
DYEAR=1900
DGENRE=
TTITLE0=Don't Make Me Creep
TTITLE1=Why Can't You Love Me
TTITLE2=Don't Knock My Love
TTITLE3=I Can't Wait To Get You Home
TTITLE4=Make You Wanna Cry
TTITLE5=Hit It Or Quit It
TTITLE6=Rock Me
TTITLE7=This Time I Am Gonna Be Sweeter
TTITLE8=I Got Your Back
TTITLE9=Little Bit Of Something
EXTD=stan mosley's greatest hits
EXTT0=
EXTT1=
EXTT2=
EXTT3=
EXTT4=
EXTT5=
EXTT6=
EXTT7=
EXTT8=
EXTT9=
PLAYORDER=
